<svg xmlns="http://www.w3.org/2000/svg" width="57.507" height="40.229" viewBox="0 0 57.507 40.229"><g id="dollar_1_" data-name="dollar (1)" transform="translate(0 -75.4)"><g id="Group_33" data-name="Group 33" transform="translate(0 75.4)"><g id="Group_32" data-name="Group 32"><path id="Path_60" data-name="Path 60" d="M57.5,97.708c-.069-1.593-1.627-2.864-4.64-3.781a33.061,33.061,0,0,0-8.513-1.192V80.51a1.239,1.239,0,0,0-.172-.573c-.321-1.386-1.868-2.509-4.606-3.334a34.113,34.113,0,0,0-9.487-1.2,33.256,33.256,0,0,0-9.4,1.2c-2.074.642-4.56,1.833-4.56,3.884a2.11,2.11,0,0,0,.034.378l.126,5.225A13.711,13.711,0,1,0,22.354,110.2a33.884,33.884,0,0,0,7.333.8c.584,3.174,7.459,4.629,13.864,4.629a32.791,32.791,0,0,0,9.4-1.226c2.074-.642,4.56-1.845,4.56-3.9V97.926A1.387,1.387,0,0,0,57.5,97.708ZM41.947,86.846c0,.149-.55.94-3.036,1.7a32.432,32.432,0,0,1-8.823,1.111,32.78,32.78,0,0,1-7.8-.859c-.034-.011-.057-.011-.092-.023a13.22,13.22,0,0,0-3.586-2.028l-.08-3.231A12.694,12.694,0,0,0,21,84.463a33.866,33.866,0,0,0,9.086,1.111,34.172,34.172,0,0,0,9.487-1.2,13.742,13.742,0,0,0,2.486-1v3A.658.658,0,0,0,41.947,86.846ZM21.369,78.814A30.95,30.95,0,0,1,30.077,77.7,31.989,31.989,0,0,1,38.9,78.814c2.486.756,3.036,1.535,3.036,1.684s-.561.951-3.048,1.7a32.376,32.376,0,0,1-8.811,1.1,31.459,31.459,0,0,1-8.444-1.031c-2.463-.71-3.151-1.49-3.208-1.742,0-.023-.011-.023-.011-.023C18.424,80.281,18.951,79.548,21.369,78.814Zm.034,29.195a11.42,11.42,0,1,1-7.688-19.856,11.67,11.67,0,0,1,3.38.5,11.467,11.467,0,0,1,7.814,8.6,11.983,11.983,0,0,1,.229,2.3A11.353,11.353,0,0,1,21.4,108.009Zm2.91.252a13.835,13.835,0,0,0,2.2-3.77c.974.08,1.982.137,3.036.149v.206l.069,3.884A35.792,35.792,0,0,1,24.314,108.261ZM27.373,98.2c.665.046,1.363.069,2.074.08l.069,4.056c-.8-.011-1.593-.046-2.349-.1a14.085,14.085,0,0,0,.264-2.681C27.43,99.106,27.407,98.659,27.373,98.2ZM30.191,96h-.115c-1.1,0-2.166-.046-3.151-.115a13.584,13.584,0,0,0-2.051-4.262,41.269,41.269,0,0,0,5.19.332,34.2,34.2,0,0,0,9.5-1.2,14.47,14.47,0,0,0,2.475-.985v3C37.123,92.908,32.071,93.939,30.191,96ZM31.7,97.823a.087.087,0,0,1,.011-.046c.1-.309.917-1.066,3.288-1.73a31.183,31.183,0,0,1,8.169-.974h.195a32.111,32.111,0,0,1,8.823,1.088c2.441.733,3.013,1.49,3.025,1.661v.011c-.011.172-.584.962-3.128,1.719a31.828,31.828,0,0,1-8.708,1.077,31.962,31.962,0,0,1-8.444-1.02c-2.463-.71-3.139-1.5-3.208-1.742Zm20.578,14.4a30.591,30.591,0,0,1-8.719,1.123,31.179,31.179,0,0,1-8.7-1.088c-2.418-.745-2.922-1.512-2.922-1.684v-.023l-.057-3.323a14.93,14.93,0,0,0,2.853,1.043,35.262,35.262,0,0,0,8.6.985,33.883,33.883,0,0,0,9.464-1.2,14.686,14.686,0,0,0,2.406-.974v3.437h.011C55.227,110.679,54.7,111.469,52.282,112.226Zm2.956-8.433h-.011c0,.115-.069.252-.069.378,0,.16-.539.94-3.013,1.7a31.7,31.7,0,0,1-8.788,1.1c-6.348,0-10.621-1.432-11.515-2.544l-.011-.962-.046-2.635a14.059,14.059,0,0,0,2.5.962,33.866,33.866,0,0,0,9.086,1.111,34.3,34.3,0,0,0,9.361-1.169,13.123,13.123,0,0,0,2.509-.985Z" transform="translate(0 -75.4)" fill="#f9c735"></path></g></g><g id="Group_35" data-name="Group 35" transform="translate(9.395 90.169)"><g id="Group_34" data-name="Group 34" transform="translate(0 0)"><path id="Path_61" data-name="Path 61" d="M90.49,215.311a4.331,4.331,0,0,0-4.171-3.151,2.034,2.034,0,1,1,2.039-2.028,1.146,1.146,0,1,0,2.292,0,4.331,4.331,0,0,0-3.151-4.171v-.516a1.146,1.146,0,0,0-2.292,0v.493a4.324,4.324,0,0,0,1.111,8.5,2.034,2.034,0,1,1-2.028,2.039,1.146,1.146,0,0,0-2.292,0,4.352,4.352,0,0,0,3.208,4.182v1a1.146,1.146,0,1,0,2.292,0V220.65A4.322,4.322,0,0,0,90.49,215.311Z" transform="translate(-82 -204.3)" fill="#f9c735"></path></g></g></g></svg>