<svg xmlns="http://www.w3.org/2000/svg" width="42.54" height="44" viewBox="0 0 42.54 44"><path id="engineer" d="M57.379,38.554a4.646,4.646,0,0,0,1.149-4.813.71.71,0,0,0-1.176-.281l-2.565,2.565-1.231-.33-.33-1.231L55.791,31.9a.71.71,0,0,0-.281-1.176A4.647,4.647,0,0,0,50.7,31.872a4.738,4.738,0,0,0-1.312,2.584,17.933,17.933,0,0,0-8.194-4.4,9.414,9.414,0,0,0,5.159-6.765h.133a1.97,1.97,0,0,0,.483-3.88q0-.034,0-.067A9.856,9.856,0,0,0,40.592,10.1a1.954,1.954,0,0,0-.42-.922A4.393,4.393,0,0,0,37.127,8a.73.73,0,0,0-.1,0,4.393,4.393,0,0,0-3.045,1.174,1.954,1.954,0,0,0-.42.922,9.856,9.856,0,0,0-6.373,9.241q0,.034,0,.067a1.97,1.97,0,0,0,.483,3.88h.133a9.414,9.414,0,0,0,5.154,6.762A17.831,17.831,0,0,0,27.892,32.1l-.062-.162a.71.71,0,0,0-.662-.455H24.729a.71.71,0,0,0-.662.455l-.444,1.153a8.37,8.37,0,0,0-1.763.731l-1.13-.5a.71.71,0,0,0-.79.147l-1.724,1.724a.71.71,0,0,0-.147.79l.5,1.13a8.369,8.369,0,0,0-.731,1.764l-1.153.444a.71.71,0,0,0-.455.662V42.42a.71.71,0,0,0,.455.662l1.153.444a8.374,8.374,0,0,0,.731,1.764l-.5,1.13a.71.71,0,0,0,.147.79l1.724,1.724a.71.71,0,0,0,.79.147l1.13-.5a8.37,8.37,0,0,0,1.763.731l.444,1.153a.71.71,0,0,0,.662.455h2.438a.71.71,0,0,0,.662-.455l.444-1.153a8.371,8.371,0,0,0,1.764-.731l1.13.5a.709.709,0,0,0,.79-.147l1.724-1.724a.71.71,0,0,0,.147-.79l-.017-.039h3.524a4.727,4.727,0,0,0,.152,2.366.71.71,0,0,0,1.176.281l2.565-2.565,1.231.33.33,1.231-2.565,2.565a.71.71,0,0,0,.281,1.176,4.758,4.758,0,0,0,1.48.237,4.73,4.73,0,0,0,4.632-5.621h7.6a.71.71,0,0,0,.706-.785,17.758,17.758,0,0,0-1.6-5.715,4.787,4.787,0,0,0,4.055-1.326ZM33.664,11.592l.519,4a.71.71,0,0,0,1.407-.183l-.627-4.831a.6.6,0,0,1,.12-.5,3.37,3.37,0,0,1,3.991,0,.6.6,0,0,1,.12.5l-.627,4.831a.71.71,0,0,0,.612.8.723.723,0,0,0,.092.006.71.71,0,0,0,.7-.618l.519-4a8.44,8.44,0,0,1,5.052,7.748s0,0,0,.007h-3v-4.5a.71.71,0,1,0-1.419,0v4.5h-8.1v-4.5a.71.71,0,1,0-1.419,0v4.5h-3s0,0,0-.007A8.439,8.439,0,0,1,33.664,11.592Zm-6.539,9.725a.551.551,0,0,1,.551-.55H46.481a.55.55,0,1,1,0,1.1H27.676a.551.551,0,0,1-.551-.551Zm2.132,1.97H44.9a8.009,8.009,0,0,1-15.643,0Zm2.041,24.3-1.017-.452a.71.71,0,0,0-.66.044,6.968,6.968,0,0,1-2.043.847.709.709,0,0,0-.5.435l-.4,1.037H25.217l-.4-1.038a.71.71,0,0,0-.5-.435,6.965,6.965,0,0,1-2.043-.847.71.71,0,0,0-.66-.044l-1.017.452-1.035-1.035.452-1.017a.71.71,0,0,0-.044-.66,6.969,6.969,0,0,1-.847-2.043.709.709,0,0,0-.435-.5l-1.037-.4V40.469l1.038-.4a.71.71,0,0,0,.435-.5,6.966,6.966,0,0,1,.847-2.043.71.71,0,0,0,.044-.66l-.452-1.017L20.6,34.817l1.017.452a.71.71,0,0,0,.66-.044,6.97,6.97,0,0,1,2.043-.847.71.71,0,0,0,.5-.435l.4-1.038H26.68l.4,1.038a.71.71,0,0,0,.5.435,6.965,6.965,0,0,1,2.043.847.71.71,0,0,0,.66.044l1.017-.452,1.035,1.035-.452,1.017a.71.71,0,0,0,.044.66,6.97,6.97,0,0,1,.847,2.044.709.709,0,0,0,.435.5l1.037.4v1.463l-1.038.4a.71.71,0,0,0-.435.5,6.965,6.965,0,0,1-.847,2.043.71.71,0,0,0-.044.66l.452,1.017Zm7.337-3.652a4.761,4.761,0,0,0-.781,1.028H33.5a8.36,8.36,0,0,0,.559-1.435l1.153-.444a.71.71,0,0,0,.455-.662V39.982a.71.71,0,0,0-.455-.662l-1.153-.444a8.371,8.371,0,0,0-.731-1.764l.5-1.13a.71.71,0,0,0-.147-.79l-1.724-1.724a.71.71,0,0,0-.79-.147l-1.13.5a8.381,8.381,0,0,0-1.289-.58,16.532,16.532,0,0,1,20.72,3.338L43.309,42.74a4.717,4.717,0,0,0-4.674,1.193Zm6.4,2.09a3.31,3.31,0,0,1-2.789,4.548l1.834-1.834a.71.71,0,0,0,.184-.686l-.542-2.023a.71.71,0,0,0-.5-.5L41.2,44.985a.71.71,0,0,0-.685.184L38.68,47a3.31,3.31,0,0,1,4.548-2.789.71.71,0,0,0,.77-.155l6.824-6.824a.71.71,0,0,0,.155-.77,3.343,3.343,0,0,1,.723-3.589,3.26,3.26,0,0,1,2.073-.966L51.932,33.75a.71.71,0,0,0-.184.686l.542,2.023a.71.71,0,0,0,.5.5l2.023.542a.71.71,0,0,0,.686-.184l1.841-1.841a3.259,3.259,0,0,1-.966,2.073,3.343,3.343,0,0,1-3.589.723.71.71,0,0,0-.77.155l-6.824,6.824a.71.71,0,0,0-.155.77Zm2.454-1.061,4.526-4.526a16.322,16.322,0,0,1,1.4,4.526ZM25.948,36.24A4.961,4.961,0,1,0,30.909,41.2,4.967,4.967,0,0,0,25.948,36.24Zm0,8.5A3.542,3.542,0,1,1,29.49,41.2a3.546,3.546,0,0,1-3.542,3.542Z" transform="translate(-16.232 -8.002)" fill="#fff"></path></svg>