<svg xmlns="http://www.w3.org/2000/svg" width="49.858" height="43.091" viewBox="0 0 49.858 43.091"><path id="engineering" d="M57.344,55.9l-2.33-.9a14.77,14.77,0,0,0-1.474-3.555l1.014-2.283a.8.8,0,0,0-.166-.9l-3.14-3.14a.8.8,0,0,0-.895-.166l-2.284,1.014a14.774,14.774,0,0,0-3.554-1.473l-.9-2.331a.8.8,0,0,0-.75-.515H38.426a.8.8,0,0,0-.75.515l-.9,2.331a14.779,14.779,0,0,0-3.554,1.473l-2.284-1.014a.8.8,0,0,0-.9.166l-3.14,3.14a.8.8,0,0,0-.166.9l.217.489a4.76,4.76,0,0,0-2.345-.586h0A4.13,4.13,0,0,0,21.727,50.1a2.012,2.012,0,0,0-.489.946,9.236,9.236,0,0,0-5.893,8.579,1.966,1.966,0,0,0,.595,3.84A8.825,8.825,0,0,0,20.392,69.5,16.709,16.709,0,0,0,8,83.863a.8.8,0,0,0,.8.89h31.61a.8.8,0,0,0,.8-.89,16.629,16.629,0,0,0-2.928-7.79.806.806,0,0,0,.141.014h4.441a.8.8,0,0,0,.75-.515l.9-2.33a14.775,14.775,0,0,0,3.555-1.474l2.283,1.014a.8.8,0,0,0,.9-.166l3.14-3.14a.8.8,0,0,0,.166-.9L53.54,66.3a14.784,14.784,0,0,0,1.473-3.553l2.331-.9a.8.8,0,0,0,.515-.75V56.654A.8.8,0,0,0,57.344,55.9ZM22.917,51.18a2.532,2.532,0,0,1,1.691-.5h0a2.531,2.531,0,0,1,1.69.5.431.431,0,0,1,.112.368c0,.01,0,.019,0,.028h0L25.992,54.8a.6.6,0,0,1-.6.53H23.83a.6.6,0,0,1-.6-.53l-.418-3.222h0c0-.009,0-.019,0-.028A.432.432,0,0,1,22.917,51.18Zm-1.578,1.571.293,2.254a2.223,2.223,0,0,0,2.2,1.932h1.558a2.223,2.223,0,0,0,2.2-1.932l.293-2.254a7.63,7.63,0,0,1,4.382,6.78H16.956a7.63,7.63,0,0,1,4.382-6.78Zm12.535,6.872a9.271,9.271,0,0,0-.88-3.9,8.275,8.275,0,1,1,.732,7.685,1.965,1.965,0,0,0,.147-3.786ZM15.583,61.5a.362.362,0,0,1,.358-.358H33.278a.358.358,0,1,1,0,.715H15.941A.362.362,0,0,1,15.583,61.5Zm2,1.966H31.632a7.228,7.228,0,0,1-7.021,5.5h0A7.228,7.228,0,0,1,17.587,63.463Zm7.022,7.1h0a15.13,15.13,0,0,1,5.369.979l-5.371,5.371-5.371-5.371a15.134,15.134,0,0,1,5.37-.979ZM14.106,74.8a15.083,15.083,0,0,1,1.587-1.335q0,2.276,0,4.55,0,2.562,0,5.127H14.106Zm3.2,3.214q0-2.786,0-5.574.181-.1.364-.194l6.14,6.14v4.757h-6.5Q17.306,80.579,17.3,78.016ZM12.5,76.632v6.512H9.726A15,15,0,0,1,12.5,76.632Zm12.916,6.512V78.387l6.14-6.14a15.036,15.036,0,0,1,7.94,10.9Zm10.393-9.876q-.332-.3-.678-.58a14.763,14.763,0,0,0,1.649.551l.669,1.738A16.8,16.8,0,0,0,35.807,73.269ZM56.251,60.543l-2.2.848a.8.8,0,0,0-.493.564,13.185,13.185,0,0,1-1.6,3.865.8.8,0,0,0-.05.748l.959,2.16L50.5,71.087l-2.159-.959a.8.8,0,0,0-.748.05,13.178,13.178,0,0,1-3.866,1.6.8.8,0,0,0-.564.493l-.848,2.2H38.978l-.848-2.2a.8.8,0,0,0-.564-.493,13.178,13.178,0,0,1-3.865-1.6.805.805,0,0,0-.748-.05l-1.092.485A16.631,16.631,0,0,0,28.827,69.5a8.842,8.842,0,0,0,4.021-4.558A9.879,9.879,0,1,0,32,54.083a9.223,9.223,0,0,0-2.581-2.327.8.8,0,0,0-.029-.575l-.959-2.16,2.359-2.36,2.16.959a.8.8,0,0,0,.748-.05,13.179,13.179,0,0,1,3.865-1.6.8.8,0,0,0,.564-.493l.848-2.2h3.337l.848,2.2a.8.8,0,0,0,.564.493,13.182,13.182,0,0,1,3.865,1.6.8.8,0,0,0,.748.05l2.16-.959,2.36,2.359L51.9,51.179a.8.8,0,0,0,.05.748,13.172,13.172,0,0,1,1.6,3.866.8.8,0,0,0,.493.564l2.2.848Zm-17.082.126-.53,4.542a.8.8,0,0,0,1.424.6l6.121-7.572a.8.8,0,0,0-.625-1.31H42.074l.258-4.435A.8.8,0,0,0,40.9,51.95L35.1,59.369a.8.8,0,0,0,.634,1.3h3.433Zm1.409-5.7-.158,2.713a.8.8,0,0,0,.8.851h2.653l-3.317,4.1.313-2.681a.8.8,0,0,0-.8-.9H37.383Z" transform="translate(-8 -41.662)" fill="#fff"></path></svg>