<svg xmlns="http://www.w3.org/2000/svg" width="79" height="78.78" viewBox="0 0 79 78.78"><g id="Fill_Outline" data-name="Fill Outline" transform="translate(-1.975 -2)"><g id="Color" transform="translate(3.321 16.415)"><g id="Group_205" data-name="Group 205"><ellipse id="Ellipse_23" data-name="Ellipse 23" cx="38.077" cy="19.695" rx="38.077" ry="19.695" transform="translate(0 0.028)" fill="#aae1f9"></ellipse><path id="Path_164" data-name="Path 164" d="M47.554,44.512c-13.616,0-26.051-5.794-35.6-15.341A52.389,52.389,0,0,1,43.7,18.252,52.794,52.794,0,0,1,77.879,31.13C68.583,19.959,55.54,13,41.077,13,25.946,13,12.356,20.615,3,32.7c9.356,12.08,22.946,19.7,38.077,19.7,14.984,0,28.45-7.471,37.8-19.352a49.369,49.369,0,0,1-31.32,11.474Z" transform="translate(-3 -12.972)" fill="#57b7eb"></path><path id="Path_165" data-name="Path 165" d="M56.39,32.7a19.7,19.7,0,1,0-31.512,15.73V52.4H48.512V48.431A19.646,19.646,0,0,0,56.39,32.7Z" transform="translate(1.382 -12.979)" fill="#f9e109"></path><rect id="Rectangle_86" data-name="Rectangle 86" width="31.512" height="5.252" rx="2" transform="translate(22.321 39.418)" fill="#d0d8da"></rect><rect id="Rectangle_87" data-name="Rectangle 87" width="31.512" height="5.252" rx="2" transform="translate(22.321 44.67)" fill="#d0d8da"></rect><path id="Path_166" data-name="Path 166" d="M23,51H46.634v1.313a11.817,11.817,0,0,1-23.634,0Z" transform="translate(3.26 -1.078)" fill="#93999a"></path><path id="Path_167" data-name="Path 167" d="M51.138,44.9a26.26,26.26,0,0,1-26.26-26.26,26.6,26.6,0,0,1,.138-2.7A19.642,19.642,0,0,0,24.878,47.5v3.965H48.512V47.5a19.957,19.957,0,0,0,2.811-2.609C51.26,44.894,51.2,44.9,51.138,44.9Z" transform="translate(1.382 -12.05)" fill="#fcbc04"></path><circle id="Ellipse_24" data-name="Ellipse 24" cx="9.191" cy="9.191" r="9.191" transform="translate(28.886 10.532)" fill="#57b7eb"></circle><circle id="Ellipse_25" data-name="Ellipse 25" cx="3.939" cy="3.939" r="3.939" transform="translate(39.39 10.532)" fill="#aae1f9"></circle><path id="Path_168" data-name="Path 168" d="M25.131,26.878a9.136,9.136,0,0,0,9.06,10.664c.2,0,.407-.017.609-.03a26.337,26.337,0,0,1-9.669-10.634Z" transform="translate(3.887 -8.628)" fill="#4891d3"></path><path id="Path_169" data-name="Path 169" d="M23.939,43H22.626a2.626,2.626,0,0,0,0,5.252h26.26a2.626,2.626,0,0,0,2.626-2.626H26.565A2.626,2.626,0,0,1,23.939,43Z" transform="translate(2.321 -3.582)" fill="#93999a"></path><path id="Path_170" data-name="Path 170" d="M23.939,47H22.626a2.626,2.626,0,1,0,0,5.252h26.26a2.626,2.626,0,0,0,2.626-2.626H26.565A2.626,2.626,0,0,1,23.939,47Z" transform="translate(2.321 -2.33)" fill="#93999a"></path><path id="Path_171" data-name="Path 171" d="M38.756,56.252h7.191a11.759,11.759,0,0,0,.687-3.939V51H23v1.313a11.81,11.81,0,0,0,7.912,11.142A7.878,7.878,0,0,1,38.756,56.252Z" transform="translate(3.26 -1.078)" fill="#656b76"></path></g></g><g id="Outline_copy" data-name="Outline copy" transform="translate(1.975 2)"><g id="Group_206" data-name="Group 206"><path id="Path_172" data-name="Path 172" d="M38.086,10.28a1.351,1.351,0,0,0,.378.055A1.313,1.313,0,0,0,39.721,9.4l1.526-5.08a1.313,1.313,0,1,0-2.516-.754l-1.526,5.08A1.313,1.313,0,0,0,38.086,10.28Z" transform="translate(9.035 -1.803)" fill="#323232"></path><path id="Path_173" data-name="Path 173" d="M44.62,11.76a1.313,1.313,0,0,0,1.78-.525l2.542-4.682A1.313,1.313,0,1,0,46.634,5.3L44.092,9.98a1.313,1.313,0,0,0,.528,1.78Z" transform="translate(11.158 -1.182)" fill="#323232"></path><path id="Path_174" data-name="Path 174" d="M52.256,14.92a1.313,1.313,0,0,0,1-.466l3.452-4.1A1.313,1.313,0,1,0,54.7,8.662l-3.452,4.1a1.313,1.313,0,0,0,1,2.159Z" transform="translate(13.352 -0.061)" fill="#323232"></path><path id="Path_175" data-name="Path 175" d="M58.354,19.725a1.313,1.313,0,0,0,.844-.307L63.269,16a1.313,1.313,0,1,0-1.687-2.012l-4.07,3.414a1.313,1.313,0,0,0,.844,2.317Z" transform="translate(15.262 1.657)" fill="#323232"></path><path id="Path_176" data-name="Path 176" d="M12.189,14.454A1.313,1.313,0,1,0,14.2,12.761l-3.452-4.1a1.313,1.313,0,1,0-2.008,1.693Z" transform="translate(0.045 -0.061)" fill="#323232"></path><path id="Path_177" data-name="Path 177" d="M18.832,11.233A1.313,1.313,0,1,0,21.14,9.98L18.6,5.3A1.313,1.313,0,1,0,16.29,6.551Z" transform="translate(2.456 -1.183)" fill="#323232"></path><path id="Path_178" data-name="Path 178" d="M6.4,19.358a1.313,1.313,0,1,0,1.6-2.077l-3.884-3a1.313,1.313,0,1,0-1.6,2.077Z" transform="translate(-1.975 1.75)" fill="#323232"></path><path id="Path_179" data-name="Path 179" d="M25.269,9.4a1.313,1.313,0,0,0,1.257.936,1.351,1.351,0,0,0,.378-.055,1.313,1.313,0,0,0,.881-1.635l-1.526-5.08a1.313,1.313,0,0,0-2.516.754Z" transform="translate(4.821 -1.803)" fill="#323232"></path><path id="Path_180" data-name="Path 180" d="M32.313,9.878a1.313,1.313,0,0,0,1.313-1.313V3.313a1.313,1.313,0,1,0-2.626,0V8.565A1.313,1.313,0,0,0,32.313,9.878Z" transform="translate(7.11 -2)" fill="#323232"></path><path id="Path_181" data-name="Path 181" d="M23.542,45.112A50.386,50.386,0,0,1,4.985,30.586a52.968,52.968,0,0,1,8.569-8.5,1.313,1.313,0,1,0-1.622-2.067,55.934,55.934,0,0,0-9.657,9.765,1.313,1.313,0,0,0,0,1.607,53.229,53.229,0,0,0,20.2,16.121,1.313,1.313,0,1,0,1.069-2.4Z" transform="translate(-1.967 3.552)" fill="#323232"></path><path id="Path_182" data-name="Path 182" d="M77.307,33.812a1.313,1.313,0,0,0,0-1.607C67.365,19.363,53.107,12,38.192,12a47.1,47.1,0,0,0-25.366,7.535,1.313,1.313,0,0,0,1.413,2.214,45.7,45.7,0,0,1,10.692-5.01,20.959,20.959,0,0,0,.131,32.641v2.01a3.939,3.939,0,1,0,0,7.878h26.26a1.313,1.313,0,0,1,0,2.626H25.062a1.313,1.313,0,1,0,0,2.626,13.13,13.13,0,0,0,26.26,0,3.922,3.922,0,0,0,2.915-6.565,3.922,3.922,0,0,0-2.915-6.565V49.38A20.822,20.822,0,0,0,59.2,33.008a21.126,21.126,0,0,0-.491-4.485,1.313,1.313,0,1,0-2.566.559,18.463,18.463,0,0,1,.431,3.926,18.236,18.236,0,0,1-7.353,14.681,1.313,1.313,0,0,0-.525,1.05V51.39H43.444v-9.3a10.459,10.459,0,0,0,4.582-12.753,1.313,1.313,0,0,0-1.106-.847,1.3,1.3,0,0,0-1.246.621,2.616,2.616,0,1,1-3.591-3.591,1.313,1.313,0,0,0-.226-2.35,10.494,10.494,0,0,0-8.918,18.92v9.3H27.688V48.736a1.313,1.313,0,0,0-.525-1.05,18.37,18.37,0,1,1,27.31-23.213A1.313,1.313,0,1,0,56.8,23.252a21.088,21.088,0,0,0-5.3-6.506A49.257,49.257,0,0,1,74.6,33.008,50.386,50.386,0,0,1,56.039,47.534a1.313,1.313,0,0,0,1.069,2.4,53.229,53.229,0,0,0,20.2-16.121ZM38.192,75.024a10.516,10.516,0,0,1-10.5-10.5H48.7a10.516,10.516,0,0,1-10.5,10.5Zm14.443-19.7a1.313,1.313,0,0,1-1.313,1.313H25.062a1.313,1.313,0,0,1,0-2.626h26.26A1.313,1.313,0,0,1,52.635,55.329ZM34.817,40.117A7.878,7.878,0,0,1,38.192,25.13c.23,0,.46.011.687.03a5.252,5.252,0,0,0,7.16,7.161c.021.227.032.457.032.687a7.913,7.913,0,0,1-4.5,7.109,1.313,1.313,0,0,0-.748,1.182V51.39H35.566V41.3a1.313,1.313,0,0,0-.749-1.186Z" transform="translate(1.231 1.13)" fill="#323232"></path><path id="Path_183" data-name="Path 183" d="M53.261,41.718a1.315,1.315,0,1,0-2.008,1.7l3.452,4.1a1.313,1.313,0,0,0,2.008-1.694Z" transform="translate(13.352 10.286)" fill="#323232"></path><path id="Path_184" data-name="Path 184" d="M59.207,36.6a1.313,1.313,0,1,0-1.687,2.01l4.07,3.414a1.313,1.313,0,0,0,1.689-2.01Z" transform="translate(15.253 8.724)" fill="#323232"></path><path id="Path_185" data-name="Path 185" d="M12.189,41.717l-3.452,4.1a1.313,1.313,0,0,0,2.008,1.694l3.452-4.1a1.313,1.313,0,1,0-2.008-1.693Z" transform="translate(0.045 10.287)" fill="#323232"></path><path id="Path_186" data-name="Path 186" d="M6.4,36.565l-3.884,3a1.313,1.313,0,1,0,1.6,2.077l3.884-3a1.313,1.313,0,1,0-1.6-2.077Z" transform="translate(-1.975 8.725)" fill="#323232"></path></g></g></g></svg>