<svg xmlns="http://www.w3.org/2000/svg" xmlns:xlink="http://www.w3.org/1999/xlink" width="31.777" height="31.777" viewBox="0 0 31.777 31.777"><defs><clipPath id="clip-path"><path id="path2511" d="M0-682.665H31.777v31.777H0Z" transform="translate(0 682.665)"></path></clipPath></defs><g id="g2505" transform="translate(0 682.665)"><g id="g2507" transform="translate(0 -682.665)"><g id="g2509" clip-path="url(#clip-path)"><g id="g2515" transform="translate(5.648 0.931)"><path id="path2517" d="M-209.759-612.75C-213.483-618.336-220-625.908-220-632.424a10.252,10.252,0,0,1,10.241-10.241,10.252,10.252,0,0,1,10.241,10.241C-199.518-625.908-206.035-618.336-209.759-612.75Z" transform="translate(219.999 642.665)" fill="rgba(0,0,0,0)" stroke="#fff" stroke-linecap="round" stroke-linejoin="round" stroke-miterlimit="10" stroke-width="1"></path></g><g id="g2519" transform="translate(11.234 6.517)"><path id="path2521" d="M-95.345-190.69A4.66,4.66,0,0,1-100-195.345,4.66,4.66,0,0,1-95.345-200a4.66,4.66,0,0,1,4.655,4.655A4.66,4.66,0,0,1-95.345-190.69Z" transform="translate(100 200)" fill="rgba(0,0,0,0)" stroke="#fff" stroke-linecap="round" stroke-linejoin="round" stroke-miterlimit="10" stroke-width="1"></path></g></g></g></g></svg>