<svg xmlns="http://www.w3.org/2000/svg" width="25" height="25" viewBox="0 0 25 25"><g id="Group_660" data-name="Group 660" transform="translate(-178 311)"><g id="Group_659" data-name="Group 659" transform="translate(-273 -175)"><circle id="Ellipse_1" data-name="Ellipse 1" cx="12.5" cy="12.5" r="12.5" transform="translate(451 -136)" fill="#5372ce"></circle><g id="mail_2_" data-name="mail (2)" transform="translate(455.823 -128.898)"><g id="Group_7" data-name="Group 7" transform="translate(0 0)"><path id="Path_29" data-name="Path 29" d="M14,76H1.349A1.351,1.351,0,0,0,0,77.349v8.1A1.352,1.352,0,0,0,1.349,86.8H14a1.351,1.351,0,0,0,1.349-1.349v-8.1A1.351,1.351,0,0,0,14,76Zm-.189.9L8.631,82.057a1.35,1.35,0,0,1-1.909,0L1.538,76.9ZM.9,85.263v-7.73L4.787,81.4Zm.639.633,3.886-3.861.662.658a2.249,2.249,0,0,0,3.18,0l.662-.659L13.815,85.9Zm12.915-.633L10.567,81.4l3.888-3.867Z" transform="translate(0 -76)" fill="#e3e3e3"></path></g></g></g></g></svg>