<svg xmlns="http://www.w3.org/2000/svg" xmlns:xlink="http://www.w3.org/1999/xlink" id="Group_573" data-name="Group 573" width="175.074" height="59.5" viewBox="0 0 175.074 59.5"><defs><clipPath id="clip-path"><rect id="Rectangle_334" data-name="Rectangle 334" width="175.074" height="59.5" fill="none"></rect></clipPath><clipPath id="clip-path-3"><rect id="Rectangle_332" data-name="Rectangle 332" width="110.214" height="59.5" fill="none"></rect></clipPath></defs><g id="Group_571" data-name="Group 571" clip-path="url(#clip-path)"><g id="Group_570" data-name="Group 570"><g id="Group_569" data-name="Group 569" clip-path="url(#clip-path)"><g id="Group_568" data-name="Group 568" transform="translate(64.861)" opacity="0.99"><g id="Group_567" data-name="Group 567"><g id="Group_566" data-name="Group 566" clip-path="url(#clip-path-3)"><text id="JOB" transform="translate(0 22.74)" fill="#ffc734" font-size="27" font-family="UltramaxVision-Regular, Ultramax Vision"><tspan x="0" y="0">JOB</tspan></text><text id="STATION" transform="translate(0 52.112)" fill="#fff" font-size="27" font-family="UltramaxVision-Regular, Ultramax Vision"><tspan x="0" y="0">S</tspan><tspan y="0">T</tspan><tspan y="0">ATION</tspan></text></g></g></g><path id="Path_5894" data-name="Path 5894" d="M43.949,8.13A11.475,11.475,0,0,0,39.8,9.71a5.263,5.263,0,0,0-.482,8.38,21.812,21.812,0,0,0,5.715,3.578c4.811,2.163,9.821,3.9,14.582,6.157C66.089,31.053,68.48,35,69.349,39.9a15.37,15.37,0,0,1-6.263,15.5,18.4,18.4,0,0,1-18.328,2.7,39.466,39.466,0,0,0,6.547.309,15.935,15.935,0,0,0,5.849-1.795,5.214,5.214,0,0,0,.982-8.651,19.024,19.024,0,0,0-5.161-3.359c-4.82-2.143-9.8-3.93-14.614-6.083-4.943-2.209-8.7-5.729-10.082-11.141-1.7-6.686,1.074-13.135,6.652-17.24A19.359,19.359,0,0,1,51.277,7.488a52.639,52.639,0,0,0-7.328.642" transform="translate(-13.708 -3.32)" fill="#fff"></path><path id="Path_5895" data-name="Path 5895" d="M89.153,23.908a7.638,7.638,0,0,1-7.784-7.629,7.73,7.73,0,0,1,7.777-7.991,7.961,7.961,0,0,1,7.814,7.758,7.835,7.835,0,0,1-7.807,7.862" transform="translate(-40.15 -4.089)" fill="#63bde0"></path><path id="Path_5896" data-name="Path 5896" d="M0,76.649H12.283c.593,2.105.186,4.869,2.735,5.938a6.915,6.915,0,0,0,4.157.445c4.281-1.155,4.1-4.86,4.283-8.423l11.977,4.876A15.064,15.064,0,0,1,28.99,89.5c-5,3.408-10.536,3.922-16.327,2.746C6.654,91.024,2.419,87.759.782,81.665A47.18,47.18,0,0,1,0,76.649" transform="translate(0 -36.815)" fill="#ffc734"></path><path id="Path_5897" data-name="Path 5897" d="M61.784,13.779V23.925c-1.7-.437-6.976-2.477-8.4-4.465a3.2,3.2,0,0,1,.839-4.6c2.032-1.493,5.4-1.541,7.561-1.081" transform="translate(-26.021 -6.672)" fill="#ffc734"></path></g></g></g></svg>