<svg xmlns="http://www.w3.org/2000/svg" id="mail_2_" data-name="mail (2)" width="29.21" height="20.538" viewBox="0 0 29.21 20.538"><g id="Group_7" data-name="Group 7" transform="translate(0 0)"><path id="Path_29" data-name="Path 29" d="M26.643,76H2.567A2.571,2.571,0,0,0,0,78.567v15.4a2.571,2.571,0,0,0,2.567,2.567H26.643a2.57,2.57,0,0,0,2.567-2.567v-15.4A2.57,2.57,0,0,0,26.643,76Zm-.36,1.712L16.42,87.522a2.567,2.567,0,0,1-3.632,0L2.927,77.712ZM1.712,93.623V78.917l7.4,7.357Zm1.216,1.2,7.393-7.346,1.258,1.252a4.279,4.279,0,0,0,6.05,0l1.26-1.253,7.393,7.346Zm24.571-1.2-7.4-7.349,7.4-7.357Z" transform="translate(0 -76)" fill="#fff"></path></g></svg>