<svg xmlns="http://www.w3.org/2000/svg" width="44.554" height="44.644" viewBox="0 0 44.554 44.644"><g id="OUTLINE" transform="translate(-15.992 -16)"><path id="Path_75" data-name="Path 75" d="M36.049,278.469l4.774-3.978a4.656,4.656,0,0,1,4.557-.8l5.014,1.823a2.222,2.222,0,0,0,.761.134h9.392v-1.485H51.155a.74.74,0,0,1-.254-.045L45.887,272.3a6.109,6.109,0,0,0-2.42-.357v0H34.8a2.221,2.221,0,0,0-.7.114l-6.226,2.075a.738.738,0,0,1-.234.038h0l-11.639-.009v1.485l11.639.009h0a2.22,2.22,0,0,0,.7-.114l6.225-2.075a.741.741,0,0,1,.235-.038h4.985l-4.684,3.9a2.834,2.834,0,0,0,3.629,4.355l2.467-2.056,6.575,6.575a.833.833,0,1,1-1.177,1.178l-.743-.743-4.827-4.827-1.05,1.05,4.827,4.827a.833.833,0,0,1-1.177,1.178l-.743-.743-3.341-3.341-1.05,1.05,3.341,3.341a.833.833,0,1,1-1.177,1.178l-1.485-1.485-.819-.819a2.314,2.314,0,0,0-2.218-2.085,2.314,2.314,0,0,0-2.228-2.228,2.319,2.319,0,0,0-3.078-2.1,2.317,2.317,0,0,0-3.846-.935l-1.485,1.485a2.31,2.31,0,0,0-.678,1.638l-8.821-.008V285.3l9.36.009c.044.053.091.1.14.154a2.3,2.3,0,0,0,1.552.677,2.314,2.314,0,0,0,2.228,2.228,2.319,2.319,0,0,0,3.078,2.1,2.318,2.318,0,0,0,3.235,1.374l.3.3a2.316,2.316,0,0,0,3.757-.7,2.316,2.316,0,0,0,3.8-.977,2.316,2.316,0,0,0,2.97-1.485,2.318,2.318,0,0,0,2.958-2.932h1.357a3.7,3.7,0,0,0,2.068-.629l1.1-.739a.741.741,0,0,1,.414-.126h6.231v-1.485H54.315a2.221,2.221,0,0,0-1.241.378l-1.1.739a2.22,2.22,0,0,1-1.241.378h-2.5l-3.824-3.824a5.421,5.421,0,0,0,3.548-1.19l.433-.346-.928-1.16-.433.346a3.946,3.946,0,0,1-5.261-.291l-.479-.479-3.509,2.924a1.349,1.349,0,0,1-1.727-2.073Zm-8.918,6.184a.833.833,0,0,1-.589-1.421l1.485-1.485a.833.833,0,0,1,1.177,1.178l-1.485,1.485A.827.827,0,0,1,27.131,284.653Zm2.228,2.228a.833.833,0,0,1-.589-1.421l1.485-1.485.743-.743a.833.833,0,0,1,1.177,1.178l-2.228,2.228A.827.827,0,0,1,29.359,286.88Zm2.816,1.984A.833.833,0,0,1,31,287.687l2.228-2.228a.833.833,0,0,1,1.177,1.178l-1.485,1.485Zm2.97,1.485a.833.833,0,1,1-1.177-1.178l1.485-1.485a.833.833,0,0,1,1.177,1.178Zm2.97.743a.833.833,0,0,1-1.177,0l-.217-.218.96-.96a2.333,2.333,0,0,0,.2-.232l.232.232A.834.834,0,0,1,38.116,291.092Z" transform="translate(0 -232.178)" fill="#fff"></path><path id="Path_76" data-name="Path 76" d="M125.7,80.336h-1.485v-11.6l-8.911-4.455V68l-7.426-3.713v4.172h-5.94V64H97.485V80.336H96v1.485h29.7Zm-25.247,0H98.97V68.455h1.485Zm0-13.366H98.97V65.485h1.485Zm7.426,13.366h-5.94V69.94h5.94Zm7.426,0h-5.94V66.687l5.94,2.97Zm7.426,0h-5.94V66.687l5.94,2.97Z" transform="translate(-72.582 -43.545)" fill="#fff"></path><rect id="Rectangle_28" data-name="Rectangle 28" width="3" height="1" transform="translate(30.948 28.528)" fill="#fff"></rect><rect id="Rectangle_29" data-name="Rectangle 29" width="3" height="2" transform="translate(30.948 30.528)" fill="#fff"></rect><rect id="Rectangle_30" data-name="Rectangle 30" width="3" height="2" transform="translate(30.948 33.528)" fill="#fff"></rect><rect id="Rectangle_31" data-name="Rectangle 31" width="3" height="2" transform="translate(45.948 26.528)" fill="#fff"></rect><rect id="Rectangle_32" data-name="Rectangle 32" width="3" height="1" transform="translate(45.948 30.528)" fill="#fff"></rect><rect id="Rectangle_33" data-name="Rectangle 33" width="3" height="2" transform="translate(45.948 33.528)" fill="#fff"></rect><rect id="Rectangle_34" data-name="Rectangle 34" width="3" height="2" transform="translate(37.948 26.528)" fill="#fff"></rect><rect id="Rectangle_35" data-name="Rectangle 35" width="3" height="1" transform="translate(37.948 30.528)" fill="#fff"></rect><rect id="Rectangle_36" data-name="Rectangle 36" width="3" height="2" transform="translate(37.948 33.528)" fill="#fff"></rect><path id="Path_77" data-name="Path 77" d="M129.485,18.228a.739.739,0,0,1,.734-.743h.738a1.484,1.484,0,0,1,1.136.55,2.9,2.9,0,0,0,4.268,0,1.448,1.448,0,0,1,2.271,0,2.9,2.9,0,0,0,4.268,0,1.448,1.448,0,0,1,2.271,0,2.933,2.933,0,0,0,2.134.935V17.485a1.484,1.484,0,0,1-1.136-.55,2.9,2.9,0,0,0-4.268,0,1.448,1.448,0,0,1-2.271,0,2.9,2.9,0,0,0-4.268,0,1.448,1.448,0,0,1-2.271,0A2.932,2.932,0,0,0,130.958,16h-.738A2.226,2.226,0,0,0,128,18.228v.743h1.485Z" transform="translate(-101.611)" fill="#fff"></path></g></svg>