<svg xmlns="http://www.w3.org/2000/svg" id="phone-call" width="21.026" height="21.056" viewBox="0 0 21.026 21.056"><g id="Group_8" data-name="Group 8" transform="translate(0 0)"><path id="Path_30" data-name="Path 30" d="M16.97,39.232a2.071,2.071,0,0,0-1.5-.689,2.142,2.142,0,0,0-1.52.684l-1.4,1.4c-.116-.062-.231-.12-.342-.178-.16-.08-.311-.156-.44-.236A15.263,15.263,0,0,1,8.1,36.881a9,9,0,0,1-1.2-1.893c.364-.333.7-.68,1.031-1.013.124-.124.249-.253.373-.378a2.039,2.039,0,0,0,0-3.075L7.1,29.308c-.138-.138-.28-.28-.413-.422-.267-.276-.547-.56-.835-.827a2.1,2.1,0,0,0-1.489-.653,2.177,2.177,0,0,0-1.511.653l-.009.009L1.327,29.592a3.251,3.251,0,0,0-.964,2.066,7.79,7.79,0,0,0,.569,3.3,19.135,19.135,0,0,0,3.4,5.671A20.913,20.913,0,0,0,11.3,46.08a10.85,10.85,0,0,0,3.911,1.155c.093,0,.191.009.28.009a3.349,3.349,0,0,0,2.564-1.1c0-.009.013-.013.018-.022a10.1,10.1,0,0,1,.778-.8c.191-.182.387-.373.578-.573a2.217,2.217,0,0,0,.671-1.538,2.136,2.136,0,0,0-.684-1.524Zm1.591,4.68s0,0,0,0c-.173.187-.351.356-.542.542a11.685,11.685,0,0,0-.858.889,2.142,2.142,0,0,1-1.671.707c-.067,0-.138,0-.2,0A9.639,9.639,0,0,1,11.82,45,19.741,19.741,0,0,1,5.26,39.867a18.042,18.042,0,0,1-3.2-5.328,6.345,6.345,0,0,1-.5-2.782,2.04,2.04,0,0,1,.613-1.32l1.515-1.515a1.01,1.01,0,0,1,.675-.316.951.951,0,0,1,.649.311l.013.013c.271.253.529.516.8.8.138.142.28.284.422.431L7.464,31.37a.848.848,0,0,1,0,1.378c-.129.129-.253.258-.382.382-.373.382-.729.738-1.115,1.084-.009.009-.018.013-.022.022a.906.906,0,0,0-.231,1.009l.013.04a9.74,9.74,0,0,0,1.435,2.342l0,0a16.311,16.311,0,0,0,3.946,3.591,6.069,6.069,0,0,0,.547.3c.16.08.311.156.44.236.018.009.036.022.053.031a.963.963,0,0,0,.44.111.95.95,0,0,0,.675-.307l1.52-1.52a1,1,0,0,1,.671-.333.905.905,0,0,1,.64.324l.009.009,2.449,2.449A.879.879,0,0,1,18.561,43.911Z" transform="translate(-0.344 -26.188)" fill="#fff"></path><path id="Path_31" data-name="Path 31" d="M245.438,87.115a5.719,5.719,0,0,1,4.657,4.657.6.6,0,0,0,.591.5.793.793,0,0,0,.1-.009.6.6,0,0,0,.493-.693,6.916,6.916,0,0,0-5.635-5.635.6.6,0,0,0-.693.489A.593.593,0,0,0,245.438,87.115Z" transform="translate(-234.074 -82.107)" fill="#fff"></path><path id="Path_32" data-name="Path 32" d="M258.751,9.289A11.388,11.388,0,0,0,249.472.009a.6.6,0,1,0-.2,1.182,10.172,10.172,0,0,1,8.293,8.293.6.6,0,0,0,.591.5.794.794,0,0,0,.1-.009A.589.589,0,0,0,258.751,9.289Z" transform="translate(-237.735 0)" fill="#fff"></path></g></svg>