<svg xmlns="http://www.w3.org/2000/svg" width="79" height="79" viewBox="0 0 79 79"><g id="target" transform="translate(0 0)"><circle id="Ellipse_19" data-name="Ellipse 19" cx="36.423" cy="36.423" r="36.423" transform="translate(0 6.155)" fill="#e94444"></circle><circle id="Ellipse_20" data-name="Ellipse 20" cx="26.411" cy="26.411" r="26.411" transform="translate(10.012 16.167)" fill="#ebebeb"></circle><circle id="Ellipse_21" data-name="Ellipse 21" cx="16.399" cy="16.399" r="16.399" transform="translate(20.024 26.179)" fill="#e94444"></circle><circle id="Ellipse_22" data-name="Ellipse 22" cx="6.387" cy="6.387" r="6.387" transform="translate(30.036 36.191)" fill="#5a5a5a"></circle><path id="Path_160" data-name="Path 160" d="M218.775,39.887c-1.062,0-2.114.048-3.153.137a36.422,36.422,0,0,1,0,72.571c1.039.089,2.09.137,3.153.137a36.423,36.423,0,0,0,0-72.846Z" transform="translate(-182.352 -33.732)" fill="#d83131"></path><g id="Group_204" data-name="Group 204" transform="translate(35.231 0)"><path id="Path_161" data-name="Path 161" d="M408.382.166l-7.99,7.99a1.691,1.691,0,0,0-.492,1.3l.463,7.372,9.414-9.414L409.344.53a.564.564,0,0,0-.962-.364Z" transform="translate(-373.424 0)" fill="#0055a3"></path><path id="Path_162" data-name="Path 162" d="M419.582,49.466l-7.99,7.99a1.691,1.691,0,0,1-1.3.492l-7.372-.463,9.414-9.414,6.888.432a.564.564,0,0,1,.363.962Z" transform="translate(-375.979 -40.655)" fill="#0055a3"></path><g id="Group_203" data-name="Group 203" transform="translate(0 1.584)"><path id="Path_163" data-name="Path 163" d="M229.524,52.449a1.192,1.192,0,0,1-.843-2.034l39.8-39.8a1.192,1.192,0,1,1,1.686,1.685l-39.8,39.8A1.188,1.188,0,0,1,229.524,52.449Z" transform="translate(-228.332 -10.264)" fill="#bfbfbf"></path></g></g></g></svg>