<svg xmlns="http://www.w3.org/2000/svg" width="40.523" height="40.229" viewBox="0 0 40.523 40.229"><g id="time-left" transform="translate(0 -1.688)"><g id="Layer_2_16_" transform="translate(0 1.688)"><g id="Group_31" data-name="Group 31" transform="translate(0 0)"><path id="Path_52" data-name="Path 52" d="M255.012,423.2c-.334.083-.675.157-1.013.219a1.629,1.629,0,0,0,.593,3.2c.4-.075.809-.163,1.207-.262a1.629,1.629,0,0,0-.787-3.161Z" transform="translate(-230.658 -386.442)" fill="#f9c735"></path><path id="Path_53" data-name="Path 53" d="M412.932,139.419a1.629,1.629,0,0,0,3.093-1.024c-.129-.389-.272-.78-.424-1.16a1.629,1.629,0,1,0-3.025,1.21C412.7,138.764,412.824,139.092,412.932,139.419Z" transform="translate(-376.531 -124.492)" fill="#f9c735"></path><path id="Path_54" data-name="Path 54" d="M322.565,394.181c-.287.19-.584.373-.883.545a1.629,1.629,0,1,0,1.628,2.822c.355-.2.708-.423,1.051-.649a1.629,1.629,0,0,0-1.8-2.718Z" transform="translate(-292.917 -359.745)" fill="#f9c735"></path><path id="Path_55" data-name="Path 55" d="M430.891,208.877a1.629,1.629,0,1,0-3.255.128c.013.344.017.692.009,1.036a1.629,1.629,0,1,0,3.257.072C430.911,209.7,430.907,209.287,430.891,208.877Z" transform="translate(-390.384 -189.4)" fill="#f9c735"></path><path id="Path_56" data-name="Path 56" d="M380.073,344.395a1.628,1.628,0,0,0-2.281.326c-.207.276-.425.548-.648.81a1.63,1.63,0,0,0,.184,2.3c.039.033.078.064.119.092a1.629,1.629,0,0,0,2.177-.276c.266-.313.526-.638.773-.967A1.629,1.629,0,0,0,380.073,344.395Z" transform="translate(-343.938 -314.244)" fill="#f9c735"></path><path id="Path_57" data-name="Path 57" d="M416.241,279.427a1.629,1.629,0,0,0-2.042,1.067c-.1.328-.217.657-.34.98a1.629,1.629,0,0,0,3.044,1.16c.146-.384.282-.776.4-1.166A1.629,1.629,0,0,0,416.241,279.427Z" transform="translate(-377.711 -255.165)" fill="#f9c735"></path><path id="Path_58" data-name="Path 58" d="M17.248,38.684a16.821,16.821,0,0,1-4.178-1.328c-.016-.008-.03-.018-.046-.025-.312-.147-.624-.3-.926-.469l0,0a17.378,17.378,0,0,1-1.621-1.013A17,17,0,0,1,10.543,8l.058-.041a17.028,17.028,0,0,1,19.084-.153L28.413,9.648c-.354.512-.136.885.483.829l5.528-.495a.911.911,0,0,0,.824-1.191L33.764,3.442c-.166-.6-.592-.671-.946-.16L31.543,5.125A20.118,20.118,0,0,0,16.8,1.991q-.782.135-1.543.329l-.01,0-.059.016A20.087,20.087,0,0,0,4.051,9.8c-.023.028-.048.055-.07.085-.092.124-.184.252-.274.379-.147.209-.292.423-.43.637-.017.026-.031.052-.046.078A20.084,20.084,0,0,0,.021,22.828c0,.014,0,.028,0,.042.018.409.051.823.095,1.231,0,.026.008.051.013.078.045.41.1.821.174,1.232a20.1,20.1,0,0,0,5.669,10.9l.021.022L6,36.341A20.526,20.526,0,0,0,8.6,38.51a20.086,20.086,0,0,0,8.077,3.38,1.629,1.629,0,0,0,.575-3.207Z" transform="translate(0 -1.688)" fill="#f9c735"></path><path id="Path_59" data-name="Path 59" d="M207.306,83.2a1.318,1.318,0,0,0-1.319,1.318V97.647L218,103.856a1.318,1.318,0,0,0,1.21-2.341l-10.584-5.472V84.516A1.318,1.318,0,0,0,207.306,83.2Z" transform="translate(-188.044 -76.098)" fill="#f9c735"></path></g></g></g></svg>