<svg xmlns="http://www.w3.org/2000/svg" width="39.574" height="43.931" viewBox="0 0 39.574 43.931"><g id="worker_2_" data-name="worker (2)" transform="translate(-45)"><g id="Group_54" data-name="Group 54" transform="translate(71.781 36.867)"><g id="Group_53" data-name="Group 53"><path id="Path_70" data-name="Path 70" d="M346.859,429a.859.859,0,1,0,.859.859A.86.86,0,0,0,346.859,429Z" transform="translate(-346 -429)" fill="#fff"></path></g></g><g id="Group_56" data-name="Group 56" transform="translate(54.594 36.867)"><g id="Group_55" data-name="Group 55"><path id="Path_71" data-name="Path 71" d="M146.859,429a.859.859,0,1,0,.859.859A.86.86,0,0,0,146.859,429Z" transform="translate(-146 -429)" fill="#fff"></path></g></g><path id="technician" d="M42.888,25.921a.7.7,0,0,0-.683.182l-2.382,2.382L37.8,27.978l-.507-2.027,2.382-2.381a.707.707,0,0,0-.317-1.182,5.52,5.52,0,0,0-1.434-.187A5.661,5.661,0,0,0,32.4,26.658a9.282,9.282,0,0,0-.913-.544l.052-.2a.707.707,0,0,0-.511-.868L28.2,24.342a.7.7,0,0,0-.782.353l-2.923-.9V22.347a7.83,7.83,0,0,0,2.675-2.974h.858a2.82,2.82,0,0,0,1.649-5.113,16.96,16.96,0,0,0,.454-3.235.682.682,0,0,0,.009-.24l-.553-3.6A7.258,7.258,0,0,0,22.374,1h-4.24a7.257,7.257,0,0,0-7.208,6.186l-.553,3.6a.7.7,0,0,0,.035.344,5.662,5.662,0,0,0-.043.565,5.678,5.678,0,0,0,.169,1.372l.3,1.194a2.82,2.82,0,0,0,1.649,5.112h.858a7.83,7.83,0,0,0,2.675,2.974V23.8l-2.923.9a.7.7,0,0,0-.782-.353l-2.827.707a.707.707,0,0,0-.511.868l.053.2A9.308,9.308,0,0,0,4,34.383v4.071a.707.707,0,0,0,.707.707v5.653H6.12V39.161h4.466L9.663,44.7l1.394.232,1.315-7.889H24.908l-3.154,3.154A2.705,2.705,0,1,0,25.58,44.02l3.188-3.188.683,4.1,1.394-.232L30,39.606l.444-.446h3.948v5.653H35.8V39.161a.707.707,0,0,0,.707-.707v-4.07a9.275,9.275,0,0,0-.071-1.084,5.512,5.512,0,0,0,1.484.208,5.66,5.66,0,0,0,5.653-5.653,5.549,5.549,0,0,0-.187-1.433.707.707,0,0,0-.5-.5ZM32.3,28.36a5.442,5.442,0,0,0,.2,1.088l-2.6,2.6,1.207-4.523A7.869,7.869,0,0,1,32.3,28.36Zm-3.762-2.473,1.444.361-2.079,7.793-1.586,1.586h-.212ZM20.96,29.868l1.568,1.96a.707.707,0,0,0,.552.265.6.6,0,0,0,.061,0,.707.707,0,0,0,.559-.365L26.826,26l.212.066-2.389,9.566H20.96Zm-1.413,5.759H15.859l-2.389-9.566L13.681,26l3.126,5.73a.707.707,0,0,0,.559.365.6.6,0,0,0,.061,0,.707.707,0,0,0,.552-.265l1.568-1.96Zm5.9-10.056-2.479,4.544L21.273,28a13.372,13.372,0,0,0,2.787-2.853ZM12.88,11.707l-.529-.529a18.952,18.952,0,0,1,6.055-.991h3.7a18.952,18.952,0,0,1,6.055.989l-.529.529a2.049,2.049,0,0,1-1.849.56l-1.189-.238a22.138,22.138,0,0,0-8.674,0l-1.185.238A2.049,2.049,0,0,1,12.88,11.707ZM22.374,8.78c-.091,0-.181-.006-.272-.006h-3.7c-.091,0-.181,0-.272.006V6.653h4.24Zm5.653,9.18h-.3a7.749,7.749,0,0,0,.3-2.12c0-.235-.008-.471-.02-.707h.02a1.413,1.413,0,1,1,0,2.827Zm0-4.24h-.169q-.032-.207-.071-.413a3.426,3.426,0,0,0,.742-.52q-.078.485-.188.965a2.723,2.723,0,0,0-.314-.032ZM18.134,2.413h4.24A5.851,5.851,0,0,1,28.187,7.4l.372,2.422a20.344,20.344,0,0,0-4.773-.979v-2.9a.707.707,0,0,0-.707-.707H17.427a.707.707,0,0,0-.707.707v2.9a20.344,20.344,0,0,0-4.774.977L12.319,7.4a5.851,5.851,0,0,1,5.815-4.986ZM11.9,12.727h0a3.444,3.444,0,0,0,.818.592q-.037.2-.071.4H12.48a2.856,2.856,0,0,0-.323.033Zm.579,5.234a1.413,1.413,0,1,1,0-2.827h.02c-.013.235-.02.471-.02.707a7.749,7.749,0,0,0,.3,2.12Zm1.413-2.12a12.332,12.332,0,0,1,.187-2.133,3.473,3.473,0,0,0,.926-.054l1.187-.238a20.819,20.819,0,0,1,8.119,0l1.191.239a3.468,3.468,0,0,0,.677.066c.083,0,.163-.018.245-.024a12.4,12.4,0,0,1,.189,2.144,6.36,6.36,0,1,1-12.72,0Zm6.36,7.773a7.722,7.722,0,0,0,2.827-.54v1.015a11.963,11.963,0,0,1-2.827,2.887,11.963,11.963,0,0,1-2.827-2.887V23.074A7.722,7.722,0,0,0,20.254,23.614Zm-3.807,1.531A13.372,13.372,0,0,0,19.234,28l-1.7,2.12L15.06,25.571Zm-4.481.74L14.4,35.627H13.023l-2.5-9.382ZM5.413,37.747V34.383A7.889,7.889,0,0,1,9.4,27.521l2.172,8.143a.7.7,0,0,0-.495.554l-.254,1.529Zm29.68-3.241v3.241H31.853Zm2.827-2.413A4.1,4.1,0,0,1,36.4,31.8a.707.707,0,0,0-.761.156l-11.06,11.06a1.292,1.292,0,1,1-1.828-1.828l11.06-11.059a.707.707,0,0,0,.157-.762,4.092,4.092,0,0,1-.289-1.519,4.244,4.244,0,0,1,3.937-4.229l-1.61,1.609a.707.707,0,0,0-.186.671l.707,2.827a.707.707,0,0,0,.514.514l2.827.707a.7.7,0,0,0,.671-.186l1.61-1.609a4.246,4.246,0,0,1-4.229,3.936Z" transform="translate(41 -1)" fill="#fff"></path></g></svg>