<svg xmlns="http://www.w3.org/2000/svg" width="40.05" height="40.229" viewBox="0 0 40.05 40.229"><g id="worker_1_" data-name="worker (1)" transform="translate(-1.146)"><path id="Path_62" data-name="Path 62" d="M393.824,388.308a.78.78,0,0,0-.947,1.239l1.332,1.018a.78.78,0,0,0,1.051-.1l2.546-2.812a.78.78,0,0,0-1.156-1.047l-2.065,2.28Z" transform="translate(-360.91 -356.235)" fill="#f9c735"></path><path id="Path_63" data-name="Path 63" d="M41.191,27.911a.779.779,0,0,0-.711-.759,10.035,10.035,0,0,1-5.814-3.173.78.78,0,0,0-.565-.243h0a.78.78,0,0,0-.565.242,11.8,11.8,0,0,1-2.529,2.01A14.075,14.075,0,0,0,25.192,22.1l-.061-.022q-.267-.094-.54-.18a10.15,10.15,0,0,0,3.23-6.726V13.947a2.578,2.578,0,0,0-.11-4.776A9.617,9.617,0,0,0,20.806.929,1.171,1.171,0,0,0,19.661,0H16.836a1.17,1.17,0,0,0-1.13.874,9.641,9.641,0,0,0-7.1,8.3A2.577,2.577,0,0,0,8.5,13.947v1.224a10.158,10.158,0,0,0,3.23,6.727q-.265.083-.524.175a.775.775,0,0,0-.1.036,14.07,14.07,0,0,0-6.36,4.555,18.172,18.172,0,0,0-3.4,7.439,3.872,3.872,0,0,0,.306,3.23,3.649,3.649,0,0,0,2.934.973h5.1a.78.78,0,1,0,0-1.559h-5.1c-.933,0-1.511-.131-1.719-.39-.22-.274-.22-.919,0-1.916.81-3.649,2.791-8.115,7.564-10.37a7.572,7.572,0,0,0,2.187,5.448.78.78,0,0,0,1.143.061l4.393-4.273,4.4,4.273a.78.78,0,0,0,.543.221h.042a.779.779,0,0,0,.558-.281,7.585,7.585,0,0,0,2.185-5.444,12.428,12.428,0,0,1,3.66,2.63,6.742,6.742,0,0,1-1.822.449.78.78,0,0,0-.711.758,13.08,13.08,0,0,0,1.656,7.121c.011.02.435.781,1.1,1.715H16.745a.78.78,0,1,0,0,1.559H31c.94,1.039,2.048,1.923,3.1,1.923,2.536,0,5.407-5.145,5.434-5.2a13.122,13.122,0,0,0,1.656-7.121ZM26.121,9H21.828a16.885,16.885,0,0,1-.992-6.429A8.06,8.06,0,0,1,26.121,9ZM17.226,1.559h2.046A21.346,21.346,0,0,0,20.17,9H16.329A21.38,21.38,0,0,0,17.226,1.559Zm-1.564.953A17.024,17.024,0,0,1,14.671,9H10.2a8.165,8.165,0,0,1,5.466-6.491ZM9.52,10.562h5.215c.046.037.09.042.128,0H26.8a1.019,1.019,0,0,1,0,2.039H9.52a1.019,1.019,0,1,1,0-2.039Zm.534,4.61V14.16H26.262v1.012c0,2.972-2.879,6.648-6.162,7.867a4.934,4.934,0,0,1-3.9,0c-3.276-1.224-6.15-4.9-6.15-7.865ZM13.29,27.865a5.3,5.3,0,0,1-1.21-4.444q.516-.167,1.068-.3A10.479,10.479,0,0,0,15.66,24.5c.283.105.555.192.821.264Zm9.736,0-3.194-3.1c.263-.071.532-.157.81-.261a10.472,10.472,0,0,0,2.525-1.38q.546.133,1.067.3a5.307,5.307,0,0,1-1.209,4.444ZM38.16,34.3c-.922,1.721-3.081,4.374-4.06,4.374s-3.138-2.653-4.061-4.375a11.261,11.261,0,0,1-1.476-5.688,9.787,9.787,0,0,0,2.577-.912.778.778,0,0,0,.089-.046,13.136,13.136,0,0,0,2.87-2.036,11.726,11.726,0,0,0,5.536,2.994A11.3,11.3,0,0,1,38.16,34.3Z" fill="#f9c735"></path><path id="Path_64" data-name="Path 64" d="M146.754,471.373a.78.78,0,1,0,0,1.559h0a.78.78,0,0,0,0-1.559Z" transform="translate(-133.537 -434.626)" fill="#f9c735"></path></g></svg>