<svg xmlns="http://www.w3.org/2000/svg" width="33" height="40.229" viewBox="0 0 33 40.229"><g id="worker" transform="translate(-46)"><g id="Group_26" data-name="Group 26" transform="translate(69.571 33.707)"><g id="Group_25" data-name="Group 25"><path id="Path_48" data-name="Path 48" d="M346.786,429a.786.786,0,1,0,.786.786A.786.786,0,0,0,346.786,429Z" transform="translate(-346 -429)" fill="#f9c735"></path></g></g><g id="Group_28" data-name="Group 28" transform="translate(53.857 33.707)"><g id="Group_27" data-name="Group 27"><path id="Path_49" data-name="Path 49" d="M146.786,429a.786.786,0,1,0,.786.786A.786.786,0,0,0,146.786,429Z" transform="translate(-146 -429)" fill="#f9c735"></path></g></g><g id="Group_30" data-name="Group 30" transform="translate(46)"><g id="Group_29" data-name="Group 29"><path id="Path_50" data-name="Path 50" d="M77.558,29.638a8.879,8.879,0,0,0-3.524-3.159.782.782,0,0,0-.446-.205,8.219,8.219,0,0,0-3.231-.659H68V23.541a9.013,9.013,0,0,0,2.82-4.448h.323a3.141,3.141,0,0,0,2.308-5.273c.049-.042.1-.086.144-.132a2.356,2.356,0,0,0-.908-3.9,8.673,8.673,0,0,0-6.3-7.668A2.5,2.5,0,0,0,64.071,0H60.929a2.5,2.5,0,0,0-2.311,2.122,8.673,8.673,0,0,0-6.3,7.667,2.356,2.356,0,0,0-.763,4.03,3.141,3.141,0,0,0,2.308,5.274h.32a9.031,9.031,0,0,0,2.2,3.86c.2.206.406.4.623.588v2.074H54.643a8.22,8.22,0,0,0-3.231.659.782.782,0,0,0-.446.205A9,9,0,0,0,46,34.493v4.95a.786.786,0,0,0,.786.786H78.214A.786.786,0,0,0,79,39.443v-4.95A8.933,8.933,0,0,0,77.558,29.638ZM50.714,38.657H47.571V34.493a7.506,7.506,0,0,1,3.143-6.04ZM71.143,17.521h-.036c.023-.261.036-.524.036-.786V14.379a1.571,1.571,0,0,1,0,3.143ZM58.571,3.782V7.307a.786.786,0,0,0,1.571,0V2.593c0-.487.411-1.021.786-1.021h3.143c.374,0,.786.535.786,1.021V7.307a.786.786,0,0,0,1.571,0V3.782A7.1,7.1,0,0,1,71.1,9.664H53.9A7.1,7.1,0,0,1,58.571,3.782ZM53.857,17.521a1.571,1.571,0,0,1,0-3.143v2.357c0,.262.012.524.036.786Zm0-4.714h-.786a.786.786,0,0,1,0-1.571H71.929a.786.786,0,0,1,0,1.571H53.857Zm1.714,5.357c0-.009,0-.017,0-.025a7.247,7.247,0,0,1-.138-1.4V14.379H69.571v2.357a7.249,7.249,0,0,1-.138,1.4c0,.008,0,.017,0,.026a7.443,7.443,0,0,1-2.738,4.419,6.746,6.746,0,0,1-8.383,0,7.281,7.281,0,0,1-.8-.717A7.451,7.451,0,0,1,55.571,18.164Zm6.143,20.493H55.429V36.85a.786.786,0,1,0-1.571,0v1.807H52.286V27.616a6.65,6.65,0,0,1,1.571-.384v4.9a.786.786,0,0,0,1.571,0v-4.95h2.02l4.265,4.479ZM58.571,26.086V24.622a8.275,8.275,0,0,0,7.857,0v1.463L62.5,30.211ZM72.714,38.657H71.143V36.85a.786.786,0,1,0-1.571,0v1.807H63.286V31.664l4.265-4.479h2.02v4.95a.786.786,0,0,0,1.571,0v-4.9a6.652,6.652,0,0,1,1.571.384Zm4.714,0H74.286v-10.2a7.506,7.506,0,0,1,3.143,6.04Z" transform="translate(-46)" fill="#f9c735"></path></g></g></g></svg>