<svg xmlns="http://www.w3.org/2000/svg" width="36.094" height="44" viewBox="0 0 36.094 44"><g id="worker_2_" data-name="worker (2)" transform="translate(-46)"><g id="Group_54" data-name="Group 54" transform="translate(71.781 36.867)"><g id="Group_53" data-name="Group 53"><path id="Path_70" data-name="Path 70" d="M346.859,429a.859.859,0,1,0,.859.859A.86.86,0,0,0,346.859,429Z" transform="translate(-346 -429)" fill="#fff"></path></g></g><g id="Group_56" data-name="Group 56" transform="translate(54.594 36.867)"><g id="Group_55" data-name="Group 55"><path id="Path_71" data-name="Path 71" d="M146.859,429a.859.859,0,1,0,.859.859A.86.86,0,0,0,146.859,429Z" transform="translate(-146 -429)" fill="#fff"></path></g></g><g id="Group_58" data-name="Group 58" transform="translate(46)"><g id="Group_57" data-name="Group 57"><path id="Path_72" data-name="Path 72" d="M80.516,32.416a9.712,9.712,0,0,0-3.854-3.456.855.855,0,0,0-.488-.225,8.99,8.99,0,0,0-3.534-.721H70.062V25.748a9.858,9.858,0,0,0,3.085-4.866H73.5a3.435,3.435,0,0,0,2.525-5.767c.054-.046.107-.094.158-.144a2.577,2.577,0,0,0-.993-4.263,9.486,9.486,0,0,0-6.9-8.387A2.734,2.734,0,0,0,65.766,0H62.328A2.734,2.734,0,0,0,59.8,2.321a9.486,9.486,0,0,0-6.9,8.386,2.577,2.577,0,0,0-.835,4.408,3.435,3.435,0,0,0,2.524,5.768h.35A9.878,9.878,0,0,0,57.35,25.1c.216.225.445.439.681.643v2.268H55.453a8.991,8.991,0,0,0-3.534.721.855.855,0,0,0-.488.225A9.846,9.846,0,0,0,46,37.727v5.414a.859.859,0,0,0,.859.859H81.234a.859.859,0,0,0,.859-.859V37.727A9.77,9.77,0,0,0,80.516,32.416Zm-29.36,9.865H47.719V37.727a8.21,8.21,0,0,1,3.437-6.607ZM73.5,19.164h-.039c.026-.286.039-.573.039-.859V15.727a1.719,1.719,0,1,1,0,3.437ZM59.75,4.137V7.992a.859.859,0,0,0,1.719,0V2.836c0-.532.45-1.117.859-1.117h3.438c.41,0,.859.585.859,1.117V7.992a.859.859,0,0,0,1.719,0V4.137a7.768,7.768,0,0,1,5.108,6.433H54.642A7.768,7.768,0,0,1,59.75,4.137ZM54.594,19.164a1.719,1.719,0,1,1,0-3.437V18.3c0,.287.014.574.039.859Zm0-5.156h-.859a.859.859,0,0,1,0-1.719H74.359a.859.859,0,0,1,0,1.719H54.594Zm1.875,5.859c0-.009,0-.019-.005-.028a7.926,7.926,0,0,1-.151-1.535V15.727H71.781V18.3a7.929,7.929,0,0,1-.151,1.534c0,.009,0,.019-.005.028A8.141,8.141,0,0,1,68.63,24.7a7.378,7.378,0,0,1-9.168,0,7.964,7.964,0,0,1-.872-.784A8.15,8.15,0,0,1,56.469,19.867Zm6.719,22.414H56.312V40.3a.859.859,0,1,0-1.719,0v1.977H52.875V30.2a7.274,7.274,0,0,1,1.719-.42v5.363a.859.859,0,1,0,1.719,0V29.734h2.21l4.665,4.9ZM59.75,28.531v-1.6a9.051,9.051,0,0,0,8.594,0v1.6l-4.3,4.512Zm15.469,13.75H73.5V40.3a.859.859,0,0,0-1.719,0v1.977H64.906V34.633l4.665-4.9h2.21v5.414a.859.859,0,0,0,1.719,0V29.785a7.275,7.275,0,0,1,1.719.42Zm5.156,0H76.937V31.12a8.21,8.21,0,0,1,3.438,6.607Z" transform="translate(-46)" fill="#fff"></path></g></g></g></svg>