<svg xmlns="http://www.w3.org/2000/svg" width="44.659" height="44.658" viewBox="0 0 44.659 44.658"><g id="worker_2_" data-name="worker (2)" transform="translate(-39.254 0.737)"><g id="Group_54" data-name="Group 54" transform="translate(71.781 36.867)"><g id="Group_53" data-name="Group 53"><path id="Path_70" data-name="Path 70" d="M346.859,429a.859.859,0,1,0,.859.859A.86.86,0,0,0,346.859,429Z" transform="translate(-346 -429)" fill="#fff"></path></g></g><g id="Group_56" data-name="Group 56" transform="translate(54.594 36.867)"><g id="Group_55" data-name="Group 55"><path id="Path_71" data-name="Path 71" d="M146.859,429a.859.859,0,1,0,.859.859A.86.86,0,0,0,146.859,429Z" transform="translate(-146 -429)" fill="#fff"></path></g></g><g id="housekeeping" transform="translate(39.254 -0.737)"><g id="Group_63" data-name="Group 63" transform="translate(0.005 13.781)"><g id="Group_62" data-name="Group 62" transform="translate(14.69)"><path id="Path_78" data-name="Path 78" d="M167.646,287.492v-2.931a.477.477,0,0,0-.954,0v2.919H156.576v-2.953a.477.477,0,1,0-.954,0v2.953h-.011A1.612,1.612,0,0,0,154,289.1v2.6a.477.477,0,0,0,.954,0v-2.6a.656.656,0,0,1,.657-.665h11.833a.867.867,0,0,1,.87.855V291.7a.477.477,0,0,0,.954,0V289.29A1.82,1.82,0,0,0,167.646,287.492Z" transform="translate(-154 -270.726)" fill="#fff"></path><g id="Group_61" data-name="Group 61" transform="translate(3.912)"><ellipse id="Ellipse_11" data-name="Ellipse 11" cx="0.668" cy="0.763" rx="0.668" ry="0.763" fill="#fff"></ellipse><ellipse id="Ellipse_12" data-name="Ellipse 12" cx="0.668" cy="0.763" rx="0.668" ry="0.763" transform="translate(6.107)" fill="#fff"></ellipse><path id="Path_79" data-name="Path 79" d="M218.07,182.273a2.409,2.409,0,0,1-1.5-.525.477.477,0,1,1,.593-.748,1.454,1.454,0,0,0,1.814,0,.477.477,0,0,1,.593.748A2.408,2.408,0,0,1,218.07,182.273Z" transform="translate(-214.348 -177.416)" fill="#fff"></path></g></g><g id="XMLID_33_" transform="translate(0 18.377)"><path id="Path_80" data-name="Path 80" d="M44.529,344.91l-4.35-3.536,4.35-3.535a.475.475,0,0,0-.3-.839H36.659a.478.478,0,0,0-.477.471v3.918H8.582l-.013-3.92a.472.472,0,0,0-.477-.47H.523a.474.474,0,0,0-.3.837l4.35,3.538-4.35,3.539a.493.493,0,0,0,.3.864H7.68v3.244a.477.477,0,0,0,.477.477H36.689a.477.477,0,0,0,.477-.477v-3.244h7.061a.5.5,0,0,0,.3-.869Zm-42.662-.085,3.763-3.069a.489.489,0,0,0,0-.747l-3.763-3.054h5.75l.022,6.871Zm34.345,3.722H8.634v-6.2H36.212Zm.925-3.722v-6.871h5.749l-3.763,3.057a.485.485,0,0,0,0,.743l3.763,3.071Z" transform="translate(-0.051 -337)" fill="#fff"></path><path id="Path_81" data-name="Path 81" d="M179.714,422.954H167.977a.477.477,0,1,1,0-.954h11.737a.477.477,0,1,1,0,.954Z" transform="translate(-151.521 -413.889)" fill="#fff"></path></g><circle id="Ellipse_13" data-name="Ellipse 13" cx="0.525" cy="0.525" r="0.525" transform="translate(32.285 20.571)" fill="#fff"></circle><circle id="Ellipse_14" data-name="Ellipse 14" cx="0.525" cy="0.525" r="0.525" transform="translate(11.292 20.571)" fill="#fff"></circle></g><path id="XMLID_40_" d="M73.971,1.419l1.419.776-1.419.776L73.195,4.39l-.776-1.419L71,2.195l1.419-.776L73.195,0Z" transform="translate(-64.225)" fill="#fff"></path><path id="XMLID_31_" d="M2.971,84.419l1.419.776-1.419.776L2.195,87.39l-.776-1.419L0,85.195l1.419-.776L2.195,83Z" transform="translate(0 -75.08)" fill="#fff"></path><path id="XMLID_30_" d="M352.419,1.419,351,2.195l1.419.776.776,1.419.776-1.419,1.419-.776-1.419-.776L353.195,0Z" transform="translate(-317.506)" fill="#fff"></path><path id="XMLID_29_" d="M423.419,84.419,422,85.195l1.419.776.776,1.419.776-1.419,1.419-.776-1.419-.776L424.195,83Z" transform="translate(-381.731 -75.08)" fill="#fff"></path><g id="Group_64" data-name="Group 64" transform="translate(30.427 38.918)"><path id="Path_82" data-name="Path 82" d="M343.755,433.223a.475.475,0,0,1-.337-.14l-.408-.408a.477.477,0,0,1,.675-.675l.408.408A.481.481,0,0,1,343.755,433.223Z" transform="translate(-340.579 -429.569)" fill="#fff"></path><path id="Path_83" data-name="Path 83" d="M319.743,409.2a.475.475,0,0,1-.337-.14l-.408-.408a.477.477,0,1,1,.675-.675l.408.408A.481.481,0,0,1,319.743,409.2Z" transform="translate(-318.858 -407.841)" fill="#fff"></path><path id="Path_84" data-name="Path 84" d="M319.369,433.224a.481.481,0,0,1-.337-.814l.408-.408a.477.477,0,1,1,.675.675l-.408.408A.476.476,0,0,1,319.369,433.224Z" transform="translate(-318.892 -429.569)" fill="#fff"></path><path id="Path_85" data-name="Path 85" d="M343.381,409.2a.481.481,0,0,1-.337-.814l.408-.408a.477.477,0,0,1,.675.675l-.408.408A.476.476,0,0,1,343.381,409.2Z" transform="translate(-340.613 -407.841)" fill="#fff"></path></g><g id="Group_65" data-name="Group 65" transform="translate(10.579 38.918)"><path id="Path_86" data-name="Path 86" d="M135.755,433.223a.475.475,0,0,1-.337-.14l-.408-.408a.477.477,0,0,1,.675-.675l.408.408A.481.481,0,0,1,135.755,433.223Z" transform="translate(-132.579 -429.569)" fill="#fff"></path><path id="Path_87" data-name="Path 87" d="M111.743,409.2a.475.475,0,0,1-.337-.14l-.408-.408a.477.477,0,0,1,.675-.675l.408.408A.481.481,0,0,1,111.743,409.2Z" transform="translate(-110.858 -407.841)" fill="#fff"></path><path id="Path_88" data-name="Path 88" d="M111.369,433.224a.481.481,0,0,1-.337-.814l.408-.408a.477.477,0,0,1,.675.675l-.408.408A.476.476,0,0,1,111.369,433.224Z" transform="translate(-110.892 -429.569)" fill="#fff"></path><path id="Path_89" data-name="Path 89" d="M135.381,409.2a.481.481,0,0,1-.337-.814l.408-.408a.477.477,0,0,1,.675.675l-.408.408A.476.476,0,0,1,135.381,409.2Z" transform="translate(-132.613 -407.841)" fill="#fff"></path></g><g id="Group_66" data-name="Group 66" transform="translate(0.004 0.191)"><path id="Path_90" data-name="Path 90" d="M44.56,20.92c.046.047.093.093,0,0s-.047-.047,0,0a.477.477,0,0,0-.675,0l-3.732,3.724-1.2-1.194,3.73-3.722a.477.477,0,1,0-.674-.675l-3.732,3.724-1.2-1.194,3.73-3.722a.477.477,0,1,0-.674-.675l-3.732,3.724-1.2-1.194,3.73-3.722a.477.477,0,1,0-.674-.675l-3.732,3.724-1.2-1.194,3.73-3.722a.477.477,0,0,0-.674-.675L32.325,17.5a5.805,5.805,0,0,0-1.2,6.4l-1.964,1.973A10.906,10.906,0,0,0,26,24.142V22.295a7.348,7.348,0,0,0,3.665-5.467,2.387,2.387,0,0,0,1.553-3.664h.7a1.766,1.766,0,1,0,0-3.531H30.593A8.114,8.114,0,0,0,22.492,2a8.252,8.252,0,0,0-8.233,8.087v2.348a2.388,2.388,0,0,0,.821,4.4,7.348,7.348,0,0,0,3.664,5.458v1.838a10.9,10.9,0,0,0-3.025,1.622L14.4,24.434l.886-.886a.481.481,0,0,0-.266-.809l-2.441-.371-.044-1.083a19.133,19.133,0,0,0-2.187-8.119.484.484,0,0,0-.759-.114L.18,22.457a.484.484,0,0,0,.115.759A19.133,19.133,0,0,0,8.414,25.4l1.083.044.371,2.441a.482.482,0,0,0,.809.266l.886-.886,1.46,1.46a10.878,10.878,0,0,0-1.635,5.767.483.483,0,0,0,.967,0,9.886,9.886,0,0,1,6.388-9.335,3.631,3.631,0,1,0,7.252,0,10.013,10.013,0,0,1,6.377,9.335.482.482,0,0,0,.483.477.476.476,0,0,0,.476-.477,10.879,10.879,0,0,0-1.446-5.449l2.2-2.19a5.839,5.839,0,0,0,6.413-1.2l4.066-4.063a.477.477,0,0,0,0-.675h0ZM10.67,26.812l-.289-1.9a.477.477,0,0,0-.453-.4L8.452,24.45a18.183,18.183,0,0,1-7.131-1.784L3.286,20.7l1.968,1.968a.477.477,0,1,0,.675-.675L3.961,20.026l1.26-1.26L9,22.547a.477.477,0,1,0,.675-.675L5.9,18.091l1.26-1.26L9.124,18.8a.477.477,0,1,0,.675-.675L7.831,16.156,9.8,14.191a18.188,18.188,0,0,1,1.784,7.131L11.64,22.8a.477.477,0,0,0,.4.453l1.9.289Zm2.9,1.113-1.332-1.332,1.485-1.485,1.26,1.26a11.106,11.106,0,0,0-1.412,1.557ZM29.717,15.834V13.164h.061a1.436,1.436,0,0,1-.061,2.669ZM22.407,2.954h.085a7.158,7.158,0,0,1,7.145,6.68H15.262a7.158,7.158,0,0,1,7.145-6.68Zm-7.194,7.634h16.7a.812.812,0,1,1,0,1.622h-16.7Zm-1.165,3.895a1.43,1.43,0,0,1,.869-1.316l.006,0h.1V15.84a1.432,1.432,0,0,1-.974-1.357Zm10.994,10v.844a2.672,2.672,0,1,1-5.344,0V22.751a7.315,7.315,0,0,0,5.344,0ZM22.37,22.3a6.4,6.4,0,0,1-6.393-6.372V13.164H28.763V15.93A6.4,6.4,0,0,1,22.37,22.3Zm8.991,5.92c-.064-.091-.127-.182-.194-.272A11.118,11.118,0,0,0,29.874,26.5L31.6,24.777a5.818,5.818,0,0,0,1.608,1.6ZM33,24.983a4.8,4.8,0,0,1-.321-6.45L39.464,25.3A4.838,4.838,0,0,1,33,24.983Z" transform="translate(-0.045 -2)" fill="#fff"></path><path id="Path_91" data-name="Path 91" d="M466.541,200.277Z" transform="translate(-422.026 -181.357)" fill="#fff"></path></g></g></g></svg>